HIERARCHY
ROOT Hips
{
	OFFSET 0.000000 0.000000 0.000000
	CHANNELS 6 Xposition Yposition Zposition Zrotation Yrotation Xrotation 
	JOINT LHipJoint
	{
		OFFSET 0.000000 0.000000 0.000000
		CHANNELS 3 Zrotation Yrotation Xrotation
		JOINT LeftUpLeg
		{
			OFFSET 1.363060 -1.794630 0.839290
			CHANNELS 3 Zrotation Yrotation Xrotation
			JOINT LeftLeg
			{
				OFFSET 2.448110 -6.726130 0.000000
				CHANNELS 3 Zrotation Yrotation Xrotation
				JOINT LeftFoot
				{
					OFFSET 2.562200 -7.039590 0.000000
					CHANNELS 3 Zrotation Yrotation Xrotation
					JOINT LeftToeBase
					{
						OFFSET 0.157640 -0.433110 2.322550
						CHANNELS 3 Zrotation Yrotation Xrotation
						End Site
						{
							OFFSET 0.000000 0.000000 0.000000
						}
					}
				}
			}
		}
	}
	JOINT RHipJoint
	{
		OFFSET 0.000000 0.000000 0.000000
		CHANNELS 3 Zrotation Yrotation Xrotation
		JOINT RightUpLeg
		{
			OFFSET -1.305520 -1.794630 0.839290
			CHANNELS 3 Zrotation Yrotation Xrotation
			JOINT RightLeg
			{
				OFFSET -2.542530 -6.985550 0.000000
				CHANNELS 3 Zrotation Yrotation Xrotation
				JOINT RightFoot
				{
					OFFSET -2.568260 -7.056230 0.000000
					CHANNELS 3 Zrotation Yrotation Xrotation
					JOINT RightToeBase
					{
						OFFSET -0.164730 -0.452590 2.363150
						CHANNELS 3 Zrotation Yrotation Xrotation
						End Site
						{
							OFFSET 0.000000 0.000000 0.000000
						}
					}
				}
			}
		}
	}
	JOINT LowerBack
	{
		OFFSET 0.000000 0.000000 0.000000
		CHANNELS 3 Zrotation Yrotation Xrotation
		JOINT Spine
		{
			OFFSET 0.028270 2.035590 -0.193380
			CHANNELS 3 Zrotation Yrotation Xrotation
			JOINT Spine1
			{
				OFFSET 0.056720 2.048850 -0.042750
				CHANNELS 3 Zrotation Yrotation Xrotation
				JOINT Neck
				{
					OFFSET 0.000000 0.000000 0.000000
					CHANNELS 3 Zrotation Yrotation Xrotation
					JOINT Neck1
					{
						OFFSET -0.054170 1.746240 0.172020
						CHANNELS 3 Zrotation Yrotation Xrotation
						JOINT Head
						{
							OFFSET 0.104070 1.761360 -0.123970
							CHANNELS 3 Zrotation Yrotation Xrotation
							End Site
							{
								OFFSET 0.000000 0.000000 0.000000
							}
						}
					}
				}
				JOINT LeftShoulder
				{
					OFFSET 0.000000 0.000000 0.000000
					CHANNELS 3 Zrotation Yrotation Xrotation
					JOINT LeftArm
					{
						OFFSET 3.362410 1.200890 -0.311210
						CHANNELS 3 Zrotation Yrotation Xrotation
						JOINT LeftForeArm
						{
							OFFSET 4.983000 -0.000000 -0.000000
							CHANNELS 3 Zrotation Yrotation Xrotation
							JOINT LeftHand
							{
								OFFSET 3.483560 -0.000000 -0.000000
								CHANNELS 3 Zrotation Yrotation Xrotation
								JOINT LeftFingerBase
								{
									OFFSET 0.000000 0.000000 0.000000
									CHANNELS 3 Zrotation Yrotation Xrotation
									JOINT LeftHandIndex1
									{
										OFFSET 0.715260 -0.000000 -0.000000
										CHANNELS 3 Zrotation Yrotation Xrotation
										End Site
										{
											OFFSET 0.000000 0.000000 0.000000
										}
									}
								}
								JOINT LThumb
								{
									OFFSET 0.000000 0.000000 0.000000
									CHANNELS 3 Zrotation Yrotation Xrotation
									End Site
									{
										OFFSET 0.000000 0.000000 0.000000
									}
								}
							}
						}
					}
				}
				JOINT RightShoulder
				{
					OFFSET 0.000000 0.000000 0.000000
					CHANNELS 3 Zrotation Yrotation Xrotation
					JOINT RightArm
					{
						OFFSET -3.136600 1.374050 -0.404650
						CHANNELS 3 Zrotation Yrotation Xrotation
						JOINT RightForeArm
						{
							OFFSET -5.241900 -0.000000 -0.000000
							CHANNELS 3 Zrotation Yrotation Xrotation
							JOINT RightHand
							{
								OFFSET -3.444170 -0.000000 -0.000000
								CHANNELS 3 Zrotation Yrotation Xrotation
								JOINT RightFingerBase
								{
									OFFSET 0.000000 0.000000 0.000000
									CHANNELS 3 Zrotation Yrotation Xrotation
									JOINT RightHandIndex1
									{
										OFFSET -0.622530 -0.000000 -0.000000
										CHANNELS 3 Zrotation Yrotation Xrotation
										End Site
										{
											OFFSET 0.000000 0.000000 0.000000
										}
									}
								}
								JOINT RThumb
								{
									OFFSET 0.000000 0.000000 0.000000
									CHANNELS 3 Zrotation Yrotation Xrotation
									End Site
									{
										OFFSET 0.000000 0.000000 0.000000
									}
								}
							}
						}
					}
				}
			}
		}
	}
}
MOTION
Frames: 8
Frame Time: 0.016667
-2.021719 17.306907 23.866137 -5.769055 11.285353 -6.837841 -6.602192 11.232941 -0.450272 -1.404836 -18.723511 -31.402457 -13.925731 16.332843 50.756584 -4.473825 6.430972 -5.314615 0.000000 0.000000 0.000000 4.951643 10.803566 -55.779290 29.929925 29.374612 26.391174 106.101212 47.256697 48.843288 12.422829 -33.160020 -74.225867 0.000000 0.000000 0.000000 -4.404935 -20.010849 49.837699 -8.002143 -6.233666 -14.785820 10.472825 16.412980 -16.297079 1.045182 58.427687 13.388475 1.586908 5.296605 8.225798 0.000000 0.000000 0.000000 1.678244 15.482449 -25.314320 -89.365721 -78.804579 -62.198983 10.702766 44.318217 -134.347633 137.797461 -28.516194 -153.844799 161.219473 -79.755039 179.999996 0.000000 0.000000 0.000000 0.000000 0.000000 0.000000 5.661053 -22.238846 3.189966 59.375950 10.460102 1.979881 16.911888 6.895815 0.505550 -3.474169 -5.723473 0.252978 -3.488883 -5.729893 -0.000000 0.000000 0.000000 0.000000 0.000000 0.000000 0.000000 
-2.033536 17.334935 24.055314 -3.482561 10.544293 -10.871936 -7.769410 12.352837 3.064231 -1.651796 -18.500512 -29.451686 -13.819287 16.191214 51.349935 -4.615296 6.160349 -5.663770 0.000000 0.000000 0.000000 4.290104 11.458545 -51.940271 29.323964 28.753724 27.476733 106.453751 46.992162 50.549287 13.865559 -35.138433 -75.141290 0.000000 0.000000 0.000000 -1.181773 -22.244286 39.702879 0.158327 -18.414690 0.917790 -9.119367 11.332496 -10.160760 0.314135 46.634015 40.738940 14.836464 3.344687 13.965263 0.000000 0.000000 0.000000 -29.992379 12.901528 -55.713937 150.015347 -64.678168 127.436076 -21.732097 53.219938 -35.315123 -115.857539 11.106484 108.520324 -29.891662 88.810107 -0.000011 0.000000 0.000000 0.000000 0.000000 0.000000 0.000000 15.958875 -12.126465 0.944464 67.511045 16.112295 1.585540 14.041986 7.831615 0.582156 -3.837201 -5.620596 0.291501 -3.856996 -5.626808 -0.000000 0.000000 0.000000 0.000000 0.000000 0.000000 0.000000 
-2.042963 17.364084 24.240545 -4.829849 11.772082 -6.776725 -7.137421 10.399808 0.124966 -1.421633 -18.911034 -30.647441 -13.497002 16.193453 52.262151 -4.748691 6.185525 -6.007274 0.000000 0.000000 0.000000 3.515995 10.760359 -54.526909 29.065745 28.122277 25.007253 107.587493 46.519550 51.042659 14.046388 -37.210306 -76.004974 0.000000 0.000000 0.000000 -1.225761 -18.013228 49.085328 -7.770270 -13.093251 -12.749407 9.875737 11.231417 -18.743246 -3.817849 45.654719 25.832085 2.800989 4.601301 13.928951 0.000000 0.000000 0.000000 2.226094 10.770408 -45.610863 -69.859821 -56.717943 -132.164442 -3.659936 -31.148734 124.211156 58.412667 -73.518133 56.663048 -112.369895 40.734840 179.999995 0.000000 0.000000 0.000000 0.000000 0.000000 0.000000 7.295953 -19.960158 4.804107 61.581787 11.317207 1.740410 18.079167 7.831538 0.424262 -2.971035 -5.567875 0.212097 -2.980021 -5.574728 -0.000000 0.000000 0.000000 0.000000 0.000000 0.000000 0.000000 
-2.049539 17.393976 24.421291 -2.384686 15.229912 -9.850846 -9.859007 9.160616 2.740348 -1.902677 -19.442770 -28.803523 -12.824916 15.961642 53.348768 -4.920373 6.546164 -6.086704 0.000000 0.000000 0.000000 1.724138 7.655778 -51.926269 27.764522 26.661660 25.670911 108.710096 45.315430 52.723442 13.587757 -36.816831 -76.299582 0.000000 0.000000 0.000000 5.378455 -14.321754 40.814805 -1.838478 -6.301593 -5.014596 -11.076508 5.816263 -13.878868 -1.731190 42.835240 21.872223 -0.528428 5.748548 8.807770 0.000000 0.000000 0.000000 -23.729584 38.670434 -24.285696 138.363841 -75.752307 75.888092 80.743090 33.581745 -147.754657 -129.851639 49.857853 50.519612 -106.032043 -9.761798 179.999992 0.000000 0.000000 0.000000 0.000000 0.000000 0.000000 12.938707 -28.640420 0.262608 62.516539 10.369766 0.656954 16.354235 10.906921 0.467563 -2.899258 -5.047188 0.233975 -2.912010 -5.053389 -0.000000 0.000000 0.000000 0.000000 0.000000 0.000000 0.000000 
-2.052667 17.424181 24.597510 -6.289453 15.362438 -9.337376 -7.648703 8.898499 1.088663 -0.821684 -19.340078 -29.282844 -12.311565 16.008843 54.545879 -5.082528 6.932548 -6.312586 0.000000 0.000000 0.000000 2.321403 7.965255 -52.548637 27.943255 23.908550 23.276113 110.051980 44.099269 53.054150 12.030863 -34.879746 -76.293616 0.000000 0.000000 0.000000 -1.420388 -13.802873 41.951742 -3.258151 -8.205587 -8.420932 1.543801 1.645397 -8.177416 2.866006 32.563888 7.683036 9.436501 2.436798 11.602539 0.000000 0.000000 0.000000 -21.366488 34.329779 0.883483 77.209586 -45.663581 17.652430 -147.467684 53.921430 -42.439664 -18.356938 -87.381300 -70.906743 45.197693 37.601370 179.999990 0.000000 0.000000 0.000000 0.000000 0.000000 0.000000 16.407214 -13.504216 2.749720 55.061748 12.803845 1.110124 16.010545 9.264757 0.474628 -3.013122 -5.098863 0.237485 -3.025916 -5.105383 -0.000000 0.000000 0.000000 0.000000 0.000000 0.000000 0.000000 
-2.052622 17.454500 24.768900 -7.792447 15.584769 -11.209390 -6.915958 8.992203 1.872068 -0.251065 -19.251776 -28.469531 -11.942426 15.900342 55.532004 -5.280524 7.212151 -6.401510 0.000000 0.000000 0.000000 2.564059 7.958315 -51.003431 27.840026 21.035697 22.357417 110.850983 42.338773 54.018953 9.289836 -31.776705 -76.317554 0.000000 0.000000 0.000000 -4.464758 -13.066628 36.992531 4.758937 -10.851937 3.823145 8.350935 2.381865 4.334214 -2.571559 30.460659 4.694245 1.973874 3.340409 6.770860 0.000000 0.000000 0.000000 -5.613455 30.089338 10.370052 -83.917469 -74.515545 -126.698220 -53.397396 57.907677 -45.155019 -85.332668 37.232027 -152.944554 94.689070 -21.835498 179.999980 0.000000 0.000000 0.000000 0.000000 0.000000 0.000000 12.680096 -9.531376 -4.710926 55.629327 21.490763 0.199111 15.723793 12.529393 0.510631 -3.112573 -4.973899 0.255612 -3.128057 -4.980123 -0.000000 0.000000 0.000000 0.000000 0.000000 0.000000 0.000000 
-2.049733 17.484665 24.935615 -1.848908 14.050501 -10.824438 -10.092803 8.854494 3.846728 -1.755366 -18.781553 -27.548475 -12.260358 16.421701 55.264926 -5.516358 7.507823 -6.308015 0.000000 0.000000 0.000000 -0.052639 8.527350 -49.939085 26.687761 20.584087 22.886692 110.709519 39.746323 56.596042 6.520131 -28.120137 -76.971912 0.000000 0.000000 0.000000 7.482696 -15.877719 36.310870 -6.867914 -7.184243 -4.187991 -5.795427 2.870868 -19.577173 -1.423534 36.774065 39.546692 2.685292 4.604491 9.904790 0.000000 0.000000 0.000000 -11.857924 12.724361 -50.411700 -103.878607 -37.406850 118.880994 26.497001 -61.964561 -41.784070 27.328873 52.741795 108.539974 -128.966625 -1.207619 -0.000755 0.000000 0.000000 0.000000 0.000000 0.000000 0.000000 5.413051 -25.976482 8.640648 61.701829 4.934034 1.050498 18.260236 11.023835 0.462798 -2.820857 -5.224404 0.231611 -2.833645 -5.230249 -0.000000 0.000000 0.000000 0.000000 0.000000 0.000000 0.000000 
-2.044666 17.514486 25.097834 -6.129182 14.419775 -6.707588 -7.376137 7.777946 -0.322552 -0.597617 -18.990304 -29.475461 -11.858132 16.363883 56.363472 -5.705760 7.880194 -6.422004 0.000000 0.000000 0.000000 0.379223 8.998872 -53.241556 27.026338 17.118474 19.331160 111.906109 37.462287 56.640594 2.605886 -22.968268 -76.867625 0.000000 0.000000 0.000000 1.306930 -13.032792 45.947561 3.385065 -5.398610 -2.390507 12.195220 7.352296 -32.077505 2.319688 42.215810 13.305567 -4.118768 3.838404 3.851149 0.000000 0.000000 0.000000 18.920454 20.763243 -70.829853 -50.264274 -6.141722 52.742812 -64.166729 -36.077040 -48.583022 120.201447 79.152691 141.116352 98.340844 -41.614502 0.000010 0.000000 0.000000 0.000000 0.000000 0.000000 0.000000 -12.855844 -23.135532 6.925068 53.780001 5.835787 0.719689 18.793451 12.743494 0.426963 -2.649211 -5.172647 0.213579 -2.659347 -5.178753 -0.000000 0.000000 0.000000 0.000000 0.000000 0.000000 0.000000 
